<svg xmlns="http://www.w3.org/2000/svg" viewBox="0 0 100 100" fill="none" width="100%" height="100%">
  <circle cx="50" cy="50" r="45" stroke="url(#gradient-border)" stroke-width="3" fill="url(#bg-gradient)" />
  <circle cx="50" cy="50" r="28" fill="url(#sparkle-glow)" opacity="0.4" filter="url(#blur-effect)" />
  <path d="M50 20C33.43 20 20 33.43 20 50C20 66.57 33.43 80 50 80C66.57 80 80 66.57 80 50" stroke="url(#orbit-gradient)" stroke-width="2" stroke-linecap="round" stroke-dasharray="10 5" />
  <path d="M50 12L54.5 35L75 39.5L54.5 44L50 67L45.5 44L25 39.5L45.5 35Z" fill="url(#brand-color)" />
  <circle cx="50" cy="39.5" r="4" fill="#10B981" />
  <defs>
    <linearGradient id="gradient-border" x1="0" y1="0" x2="100" y2="100">
      <stop offset="0%" stop-color="#3B82F6" />
      <stop offset="100%" stop-color="#10B981" />
    </linearGradient>
    <linearGradient id="bg-gradient" x1="0" y1="0" x2="100" y2="100">
      <stop offset="0%" stop-color="#0B0F19" />
      <stop offset="100%" stop-color="#131B2E" />
    </linearGradient>
    <radialGradient id="sparkle-glow" cx="50%" cy="50%" r="50%">
      <stop offset="0%" stop-color="#3B82F6" />
      <stop offset="100%" stop-color="transparent" />
    </radialGradient>
    <linearGradient id="orbit-gradient" x1="0" y1="0" x2="100" y2="100">
      <stop offset="0%" stop-color="#10B981" />
      <stop offset="100%" stop-color="#3B82F6" />
    </linearGradient>
    <linearGradient id="brand-color" x1="0" y1="0" x2="100" y2="100">
      <stop offset="0%" stop-color="#FFFFFF" />
      <stop offset="100%" stop-color="#93C5FD" />
    </linearGradient>
    <filter id="blur-effect" x="-20%" y="-20%" width="140%" height="140%">
      <feGaussianBlur stdDeviation="5" />
    </filter>
  </defs>
</svg>